<mxfile host="app.diagrams.net" modified="2023-10-06T20:47:37.405Z" agent="Mozilla/5.0 (Windows NT 10.0; Win64; x64; rv:109.0) Gecko/20100101 Firefox/119.0" etag="b6u6BB87hkZIUvcmcYJV" version="21.6.2" type="device">
  <diagram name="Page-1" id="oRm1Rv_gKuC497mdLbpD">
    <mxGraphModel dx="1434" dy="774" grid="1" gridSize="10" guides="1" tooltips="1" connect="1" arrows="1" fold="1" page="1" pageScale="1" pageWidth="827" pageHeight="1169" math="0" shadow="0">
      <root>
        <mxCell id="0" />
        <mxCell id="1" parent="0" />
        <mxCell id="xjwnf8DF865iTHwS-jXy-1" value="" style="rounded=1;whiteSpace=wrap;html=1;fillColor=#dae8fc;strokeColor=#6c8ebf;" vertex="1" parent="1">
          <mxGeometry x="870" y="240" width="220" height="240" as="geometry" />
        </mxCell>
        <mxCell id="xjwnf8DF865iTHwS-jXy-2" value="Client - Web Browser" style="text;html=1;align=center;verticalAlign=middle;resizable=0;points=[];autosize=1;strokeColor=none;fillColor=none;fontSize=20;" vertex="1" parent="1">
          <mxGeometry x="875" y="330" width="210" height="40" as="geometry" />
        </mxCell>
        <mxCell id="xjwnf8DF865iTHwS-jXy-4" value="" style="rounded=1;whiteSpace=wrap;html=1;fillColor=#e1d5e7;strokeColor=#9673a6;" vertex="1" parent="1">
          <mxGeometry x="190" y="100" width="420" height="600" as="geometry" />
        </mxCell>
        <mxCell id="xjwnf8DF865iTHwS-jXy-5" value="Server (GCP e2-micro instance)" style="text;html=1;align=center;verticalAlign=middle;resizable=0;points=[];autosize=1;strokeColor=none;fillColor=none;fontSize=20;" vertex="1" parent="1">
          <mxGeometry x="245" y="130" width="310" height="40" as="geometry" />
        </mxCell>
        <mxCell id="xjwnf8DF865iTHwS-jXy-6" value="" style="rounded=1;whiteSpace=wrap;html=1;fillColor=#dae8fc;strokeColor=#6c8ebf;" vertex="1" parent="1">
          <mxGeometry x="205" y="200" width="355" height="490" as="geometry" />
        </mxCell>
        <mxCell id="xjwnf8DF865iTHwS-jXy-7" value="Docker Container" style="text;html=1;strokeColor=none;fillColor=none;align=center;verticalAlign=middle;whiteSpace=wrap;rounded=0;fontSize=20;" vertex="1" parent="1">
          <mxGeometry x="307.5" y="220" width="162.5" height="30" as="geometry" />
        </mxCell>
        <mxCell id="xjwnf8DF865iTHwS-jXy-8" value="" style="rounded=1;whiteSpace=wrap;html=1;fillColor=#d5e8d4;strokeColor=#82b366;" vertex="1" parent="1">
          <mxGeometry x="220" y="260" width="260" height="140" as="geometry" />
        </mxCell>
        <mxCell id="xjwnf8DF865iTHwS-jXy-9" value="" style="rounded=1;whiteSpace=wrap;html=1;fillColor=#d5e8d4;strokeColor=#82b366;" vertex="1" parent="1">
          <mxGeometry x="220" y="420" width="260" height="145" as="geometry" />
        </mxCell>
        <mxCell id="xjwnf8DF865iTHwS-jXy-10" value="Frontend Image" style="text;html=1;strokeColor=none;fillColor=none;align=center;verticalAlign=middle;whiteSpace=wrap;rounded=0;fontSize=16;" vertex="1" parent="1">
          <mxGeometry x="288.75" y="270" width="122.5" height="30" as="geometry" />
        </mxCell>
        <mxCell id="xjwnf8DF865iTHwS-jXy-11" value="Backend Image" style="text;html=1;strokeColor=none;fillColor=none;align=center;verticalAlign=middle;whiteSpace=wrap;rounded=0;fontSize=16;" vertex="1" parent="1">
          <mxGeometry x="288.75" y="430" width="122.5" height="30" as="geometry" />
        </mxCell>
        <mxCell id="xjwnf8DF865iTHwS-jXy-12" value="" style="rounded=1;whiteSpace=wrap;html=1;fillColor=#ffe6cc;strokeColor=#d79b00;" vertex="1" parent="1">
          <mxGeometry x="359" y="590" width="110" height="80" as="geometry" />
        </mxCell>
        <mxCell id="xjwnf8DF865iTHwS-jXy-13" value="SQLite Volume" style="text;html=1;strokeColor=none;fillColor=none;align=center;verticalAlign=middle;whiteSpace=wrap;rounded=0;fontSize=16;" vertex="1" parent="1">
          <mxGeometry x="364" y="612.5" width="100" height="35" as="geometry" />
        </mxCell>
        <mxCell id="xjwnf8DF865iTHwS-jXy-54" style="edgeStyle=orthogonalEdgeStyle;rounded=0;orthogonalLoop=1;jettySize=auto;html=1;entryX=0.5;entryY=0;entryDx=0;entryDy=0;" edge="1" parent="1" source="xjwnf8DF865iTHwS-jXy-14" target="xjwnf8DF865iTHwS-jXy-22">
          <mxGeometry relative="1" as="geometry" />
        </mxCell>
        <mxCell id="xjwnf8DF865iTHwS-jXy-14" value="" style="rounded=1;whiteSpace=wrap;html=1;fillColor=#f8cecc;strokeColor=#b85450;" vertex="1" parent="1">
          <mxGeometry x="367.5" y="310" width="90" height="60" as="geometry" />
        </mxCell>
        <mxCell id="xjwnf8DF865iTHwS-jXy-15" value="NGINX" style="text;html=1;strokeColor=none;fillColor=none;align=center;verticalAlign=middle;whiteSpace=wrap;rounded=0;fontSize=14;" vertex="1" parent="1">
          <mxGeometry x="382.5" y="325" width="60" height="30" as="geometry" />
        </mxCell>
        <mxCell id="xjwnf8DF865iTHwS-jXy-18" value="" style="rounded=1;whiteSpace=wrap;html=1;fillColor=#f8cecc;strokeColor=#b85450;" vertex="1" parent="1">
          <mxGeometry x="240" y="310" width="90" height="60" as="geometry" />
        </mxCell>
        <mxCell id="xjwnf8DF865iTHwS-jXy-19" value="React Build" style="text;html=1;strokeColor=none;fillColor=none;align=center;verticalAlign=middle;whiteSpace=wrap;rounded=0;fontSize=14;" vertex="1" parent="1">
          <mxGeometry x="255" y="325" width="60" height="30" as="geometry" />
        </mxCell>
        <mxCell id="xjwnf8DF865iTHwS-jXy-20" value="" style="rounded=1;whiteSpace=wrap;html=1;fillColor=#f8cecc;strokeColor=#b85450;arcSize=18;" vertex="1" parent="1">
          <mxGeometry x="240" y="470" width="90" height="60" as="geometry" />
        </mxCell>
        <mxCell id="xjwnf8DF865iTHwS-jXy-22" value="" style="rounded=1;whiteSpace=wrap;html=1;fillColor=#f8cecc;strokeColor=#b85450;arcSize=18;" vertex="1" parent="1">
          <mxGeometry x="367.5" y="470" width="90" height="60" as="geometry" />
        </mxCell>
        <mxCell id="xjwnf8DF865iTHwS-jXy-23" value="Gunicorn" style="text;html=1;strokeColor=none;fillColor=none;align=center;verticalAlign=middle;whiteSpace=wrap;rounded=0;fontSize=14;" vertex="1" parent="1">
          <mxGeometry x="385" y="485" width="60" height="30" as="geometry" />
        </mxCell>
        <mxCell id="xjwnf8DF865iTHwS-jXy-24" value="Flask App" style="text;html=1;strokeColor=none;fillColor=none;align=center;verticalAlign=middle;whiteSpace=wrap;rounded=0;fontSize=14;" vertex="1" parent="1">
          <mxGeometry x="255" y="485" width="60" height="30" as="geometry" />
        </mxCell>
        <mxCell id="xjwnf8DF865iTHwS-jXy-38" value="" style="endArrow=classic;html=1;rounded=0;exitX=0;exitY=0.5;exitDx=0;exitDy=0;" edge="1" parent="1" source="xjwnf8DF865iTHwS-jXy-41">
          <mxGeometry width="50" height="50" relative="1" as="geometry">
            <mxPoint x="700" y="380" as="sourcePoint" />
            <mxPoint x="460" y="330" as="targetPoint" />
          </mxGeometry>
        </mxCell>
        <mxCell id="xjwnf8DF865iTHwS-jXy-40" value="Port 80/443" style="text;html=1;align=center;verticalAlign=middle;resizable=0;points=[];autosize=1;strokeColor=none;fillColor=none;" vertex="1" parent="1">
          <mxGeometry x="610" y="300" width="90" height="30" as="geometry" />
        </mxCell>
        <mxCell id="xjwnf8DF865iTHwS-jXy-42" value="" style="endArrow=classic;html=1;rounded=0;exitX=-0.005;exitY=0.375;exitDx=0;exitDy=0;exitPerimeter=0;" edge="1" parent="1" source="xjwnf8DF865iTHwS-jXy-1" target="xjwnf8DF865iTHwS-jXy-41">
          <mxGeometry width="50" height="50" relative="1" as="geometry">
            <mxPoint x="869" y="330" as="sourcePoint" />
            <mxPoint x="460" y="330" as="targetPoint" />
          </mxGeometry>
        </mxCell>
        <mxCell id="xjwnf8DF865iTHwS-jXy-41" value="HTTP request routed across the internet" style="text;html=1;strokeColor=none;fillColor=none;align=center;verticalAlign=middle;whiteSpace=wrap;rounded=0;" vertex="1" parent="1">
          <mxGeometry x="720" y="315" width="60" height="30" as="geometry" />
        </mxCell>
        <mxCell id="xjwnf8DF865iTHwS-jXy-47" value="Port 80" style="text;html=1;strokeColor=none;fillColor=none;align=center;verticalAlign=middle;whiteSpace=wrap;rounded=0;" vertex="1" parent="1">
          <mxGeometry x="555" y="300" width="60" height="30" as="geometry" />
        </mxCell>
        <mxCell id="xjwnf8DF865iTHwS-jXy-50" value="" style="endArrow=classic;startArrow=classic;html=1;rounded=0;exitX=1;exitY=0.5;exitDx=0;exitDy=0;" edge="1" parent="1" source="xjwnf8DF865iTHwS-jXy-18">
          <mxGeometry width="50" height="50" relative="1" as="geometry">
            <mxPoint x="360" y="390" as="sourcePoint" />
            <mxPoint x="370" y="340" as="targetPoint" />
          </mxGeometry>
        </mxCell>
        <mxCell id="xjwnf8DF865iTHwS-jXy-52" value="Static Files" style="text;html=1;strokeColor=none;fillColor=none;align=center;verticalAlign=middle;whiteSpace=wrap;rounded=0;fontSize=10;" vertex="1" parent="1">
          <mxGeometry x="325" y="310" width="50" height="30" as="geometry" />
        </mxCell>
        <mxCell id="xjwnf8DF865iTHwS-jXy-55" value="Proxy pass on port 5000" style="text;html=1;strokeColor=none;fillColor=none;align=center;verticalAlign=middle;whiteSpace=wrap;rounded=0;" vertex="1" parent="1">
          <mxGeometry x="411.25" y="395" width="72.5" height="30" as="geometry" />
        </mxCell>
        <mxCell id="xjwnf8DF865iTHwS-jXy-57" value="" style="endArrow=classic;html=1;rounded=0;entryX=1;entryY=0.5;entryDx=0;entryDy=0;" edge="1" parent="1" target="xjwnf8DF865iTHwS-jXy-20">
          <mxGeometry width="50" height="50" relative="1" as="geometry">
            <mxPoint x="367.5" y="500" as="sourcePoint" />
            <mxPoint x="417.5" y="450" as="targetPoint" />
          </mxGeometry>
        </mxCell>
        <mxCell id="xjwnf8DF865iTHwS-jXy-61" value="SQL Query" style="text;html=1;strokeColor=none;fillColor=none;align=center;verticalAlign=middle;whiteSpace=wrap;rounded=0;" vertex="1" parent="1">
          <mxGeometry x="290" y="600" width="70" height="30" as="geometry" />
        </mxCell>
        <mxCell id="xjwnf8DF865iTHwS-jXy-64" value="" style="endArrow=classic;startArrow=classic;html=1;rounded=0;exitX=0.5;exitY=1;exitDx=0;exitDy=0;entryX=0;entryY=0.5;entryDx=0;entryDy=0;" edge="1" parent="1" source="xjwnf8DF865iTHwS-jXy-20" target="xjwnf8DF865iTHwS-jXy-12">
          <mxGeometry width="50" height="50" relative="1" as="geometry">
            <mxPoint x="360" y="390" as="sourcePoint" />
            <mxPoint x="410" y="340" as="targetPoint" />
            <Array as="points">
              <mxPoint x="285" y="630" />
            </Array>
          </mxGeometry>
        </mxCell>
        <mxCell id="xjwnf8DF865iTHwS-jXy-66" value="" style="endArrow=classic;startArrow=classic;html=1;rounded=0;exitX=1;exitY=0.75;exitDx=0;exitDy=0;" edge="1" parent="1" source="xjwnf8DF865iTHwS-jXy-14">
          <mxGeometry width="50" height="50" relative="1" as="geometry">
            <mxPoint x="360" y="390" as="sourcePoint" />
            <mxPoint x="870" y="440" as="targetPoint" />
            <Array as="points">
              <mxPoint x="640" y="355" />
              <mxPoint x="640" y="440" />
            </Array>
          </mxGeometry>
        </mxCell>
        <mxCell id="xjwnf8DF865iTHwS-jXy-67" value="HTTP response" style="text;html=1;strokeColor=none;fillColor=none;align=center;verticalAlign=middle;whiteSpace=wrap;rounded=0;" vertex="1" parent="1">
          <mxGeometry x="670" y="395" width="60" height="30" as="geometry" />
        </mxCell>
      </root>
    </mxGraphModel>
  </diagram>
</mxfile>
